<svg xmlns="http://www.w3.org/2000/svg" viewBox="0 0 50 50"><path fill="#231F20" d="M23.76 41.231c8.822 0 16-7.178 16-16s-7.178-16-16-16-16 7.178-16 16 7.178 16 16 16zm0-30c7.72 0 14 6.28 14 14s-6.28 14-14 14-14-6.28-14-14 6.28-14 14-14z"/><path fill="#231F20" d="M16.76 33.231a.986.986 0 0 0 .438-.102l9.403-4.594a.996.996 0 0 0 .459-.459l4.597-9.406a.999.999 0 0 0-1.337-1.337l-9.406 4.597a.996.996 0 0 0-.459.459l-4.594 9.403a.999.999 0 0 0 .899 1.439zm5.341-9.655l6.481-3.167-3.167 6.481-6.479 3.165 3.165-6.479z"/></svg>